<svg width="20" height="20" viewBox="0 0 20 20" fill="none" xmlns="http://www.w3.org/2000/svg">
<path d="M13.5773 4.02189C12.6058 2.99805 11.5125 2.09708 10.3219 1.33907C10.2247 1.28067 10.1134 1.24982 10 1.24982C9.8866 1.24982 9.77533 1.28067 9.67812 1.33907C8.4875 2.09708 7.39421 2.99805 6.42266 4.02189C4.26484 6.28751 3.125 8.78673 3.125 11.25C3.125 13.0734 3.84933 14.8221 5.13864 16.1114C6.42795 17.4007 8.17664 18.125 10 18.125C11.8234 18.125 13.572 17.4007 14.8614 16.1114C16.1507 14.8221 16.875 13.0734 16.875 11.25C16.875 8.78673 15.7352 6.28751 13.5773 4.02189ZM7.5 14.375C7.5 12.2133 9.26016 10.6813 10 10.1328C10.7406 10.6797 12.5 12.2133 12.5 14.375C12.5 15.0381 12.2366 15.6739 11.7678 16.1428C11.2989 16.6116 10.663 16.875 10 16.875C9.33696 16.875 8.70107 16.6116 8.23223 16.1428C7.76339 15.6739 7.5 15.0381 7.5 14.375Z" fill="#FF8C24"/>
</svg>
