<svg width="38" height="28" viewBox="0 0 38 28" fill="none" xmlns="http://www.w3.org/2000/svg">
<path d="M37.4071 20.8984C37.4079 20.8912 37.4079 20.8838 37.4071 20.8766L34.8462 7.725C34.8462 7.71563 34.8462 7.70625 34.8462 7.69688C34.4509 5.53758 33.3113 3.58512 31.6256 2.17892C29.94 0.77273 27.8148 0.00174238 25.6196 6.91644e-07H11.8524C9.65111 -0.000845355 7.51997 0.774521 5.83383 2.18973C4.1477 3.60494 3.01455 5.56936 2.6337 7.7375L0.0852583 20.8766C0.0845056 20.8838 0.0845056 20.8912 0.0852583 20.8984C-0.122175 22.0763 0.0512085 23.2896 0.580236 24.3622C1.10926 25.4348 1.9664 26.3109 3.02719 26.8632C4.08798 27.4156 5.29721 27.6154 6.47932 27.4338C7.66142 27.2522 8.75486 26.6985 9.60088 25.8531L9.65557 25.7953L15.8571 18.75H21.6384L27.8431 25.7953C27.8603 25.8156 27.879 25.8344 27.8978 25.8531C28.9522 26.9053 30.3801 27.4973 31.8696 27.5C32.6907 27.4995 33.5017 27.3192 34.2456 26.9719C34.9896 26.6245 35.6485 26.1185 36.1761 25.4894C36.7037 24.8602 37.0871 24.1232 37.2995 23.3301C37.5119 22.537 37.5481 21.707 37.4056 20.8984H37.4071ZM14.9946 11.25H13.7446V12.5C13.7446 12.8315 13.6129 13.1495 13.3785 13.3839C13.1441 13.6183 12.8262 13.75 12.4946 13.75C12.1631 13.75 11.8452 13.6183 11.6107 13.3839C11.3763 13.1495 11.2446 12.8315 11.2446 12.5V11.25H9.99463C9.66311 11.25 9.34517 11.1183 9.11075 10.8839C8.87633 10.6495 8.74463 10.3315 8.74463 10C8.74463 9.66848 8.87633 9.35054 9.11075 9.11612C9.34517 8.8817 9.66311 8.75 9.99463 8.75H11.2446V7.5C11.2446 7.16848 11.3763 6.85054 11.6107 6.61612C11.8452 6.3817 12.1631 6.25 12.4946 6.25C12.8262 6.25 13.1441 6.3817 13.3785 6.61612C13.6129 6.85054 13.7446 7.16848 13.7446 7.5V8.75H14.9946C15.3262 8.75 15.6441 8.8817 15.8785 9.11612C16.1129 9.35054 16.2446 9.66848 16.2446 10C16.2446 10.3315 16.1129 10.6495 15.8785 10.8839C15.6441 11.1183 15.3262 11.25 14.9946 11.25ZM21.2446 10C21.2446 9.66848 21.3763 9.35054 21.6107 9.11612C21.8452 8.8817 22.1631 8.75 22.4946 8.75H26.2446C26.5762 8.75 26.8941 8.8817 27.1285 9.11612C27.3629 9.35054 27.4946 9.66848 27.4946 10C27.4946 10.3315 27.3629 10.6495 27.1285 10.8839C26.8941 11.1183 26.5762 11.25 26.2446 11.25H22.4946C22.1631 11.25 21.8452 11.1183 21.6107 10.8839C21.3763 10.6495 21.2446 10.3315 21.2446 10ZM34.4274 23.6672C34.1933 24.0043 33.8946 24.2915 33.5486 24.5123C33.2026 24.733 32.8162 24.8829 32.4118 24.9531C31.9226 25.0387 31.4202 25.0069 30.9456 24.8605C30.4711 24.7141 30.0381 24.4572 29.6821 24.1109L24.9634 18.75H25.6196C27.2155 18.7502 28.785 18.343 30.1795 17.567C31.574 16.791 32.7474 15.6719 33.5884 14.3156L34.954 21.3469C35.0235 21.7492 35.0128 22.1614 34.9225 22.5596C34.8321 22.9578 34.6639 23.3342 34.4274 23.6672Z" fill="url(#paint0_linear_3_168)"/>
<defs>
<linearGradient id="paint0_linear_3_168" x1="1.30703" y1="12.925" x2="36.2986" y2="12.925" gradientUnits="userSpaceOnUse">
<stop offset="0.451923" stop-color="#1164FF"/>
<stop offset="1" stop-color="#004CD9"/>
</linearGradient>
</defs>
</svg>
