<svg width="33" height="32" viewBox="0 0 33 32" fill="none" xmlns="http://www.w3.org/2000/svg">
<path d="M30 8.75218H24.5187C24.5797 8.70062 24.6422 8.65062 24.7016 8.59593C25.1761 8.17433 25.5586 7.65935 25.825 7.0832C26.0914 6.50705 26.2361 5.88212 26.25 5.24749C26.2705 4.55323 26.1489 3.86211 25.8927 3.21654C25.6365 2.57097 25.251 1.98458 24.7599 1.49338C24.2689 1.00217 23.6826 0.616519 23.0371 0.360088C22.3916 0.103658 21.7005 -0.0181369 21.0063 0.00218147C20.3714 0.0158562 19.7461 0.160439 19.1697 0.42688C18.5933 0.69332 18.078 1.07588 17.6562 1.55062C17.0726 2.22702 16.5982 2.99037 16.25 3.81312C15.9018 2.99037 15.4274 2.22702 14.8438 1.55062C14.422 1.07588 13.9067 0.69332 13.3303 0.42688C12.7539 0.160439 12.1286 0.0158562 11.4937 0.00218147C10.7995 -0.0181369 10.1084 0.103658 9.4629 0.360088C8.8174 0.616519 8.23113 1.00217 7.74008 1.49338C7.24902 1.98458 6.86354 2.57097 6.6073 3.21654C6.35106 3.86211 6.22947 4.55323 6.25 5.24749C6.26389 5.88212 6.40857 6.50705 6.67501 7.0832C6.94144 7.65935 7.32389 8.17433 7.79844 8.59593C7.85781 8.64749 7.92031 8.69749 7.98125 8.75218H2.5C1.83696 8.75218 1.20107 9.01557 0.732233 9.48442C0.263392 9.95326 0 10.5891 0 11.2522V16.2522C0 16.9152 0.263392 17.5511 0.732233 18.0199C1.20107 18.4888 1.83696 18.7522 2.5 18.7522V28.7522C2.5 29.4152 2.76339 30.0511 3.23223 30.5199C3.70107 30.9888 4.33696 31.2522 5 31.2522H14.375C14.5408 31.2522 14.6997 31.1863 14.8169 31.0691C14.9342 30.9519 15 30.7929 15 30.6272V16.2522H2.5V11.2522H15V16.2522H17.5V11.2522H30V16.2522H17.5V30.6272C17.5 30.7929 17.5658 30.9519 17.6831 31.0691C17.8003 31.1863 17.9592 31.2522 18.125 31.2522H27.5C28.163 31.2522 28.7989 30.9888 29.2678 30.5199C29.7366 30.0511 30 29.4152 30 28.7522V18.7522C30.663 18.7522 31.2989 18.4888 31.7678 18.0199C32.2366 17.5511 32.5 16.9152 32.5 16.2522V11.2522C32.5 10.5891 32.2366 9.95326 31.7678 9.48442C31.2989 9.01557 30.663 8.75218 30 8.75218ZM9.45469 6.72093C9.23613 6.52301 9.06084 6.28204 8.93984 6.01316C8.81884 5.74427 8.75474 5.45327 8.75156 5.15843C8.74366 4.81297 8.80479 4.4694 8.93136 4.14786C9.05793 3.82632 9.2474 3.53327 9.48867 3.28589C9.72994 3.03851 10.0182 2.84177 10.3364 2.7072C10.6547 2.57262 10.9966 2.50292 11.3422 2.50218H11.4188C11.7136 2.50536 12.0046 2.56946 12.2735 2.69046C12.5424 2.81146 12.7833 2.98674 12.9813 3.20531C14.2922 4.68656 14.7547 7.14281 14.9172 8.66156C13.3922 8.50062 10.9375 8.03812 9.45469 6.72093ZM23.0484 6.72093C21.5656 8.03343 19.1047 8.49593 17.5797 8.65843C17.7656 7.01624 18.2812 4.61156 19.5312 3.20687C19.7292 2.98831 19.9701 2.81302 20.239 2.69203C20.5079 2.57103 20.7989 2.50692 21.0938 2.50374H21.1703C21.5159 2.5059 21.8576 2.57702 22.1753 2.71292C22.493 2.84882 22.7805 3.04677 23.0207 3.29517C23.261 3.54358 23.4492 3.83744 23.5745 4.15953C23.6997 4.48163 23.7594 4.82548 23.75 5.17093C23.7449 5.46377 23.6797 5.75245 23.5585 6.01907C23.4373 6.28569 23.2626 6.52458 23.0453 6.72093H23.0484Z" fill="url(#paint0_linear_3_112)"/>
<defs>
<linearGradient id="paint0_linear_3_112" x1="1.13303" y1="14.6885" x2="31.4664" y2="14.6885" gradientUnits="userSpaceOnUse">
<stop offset="0.451923" stop-color="#1164FF"/>
<stop offset="1" stop-color="#004CD9"/>
</linearGradient>
</defs>
</svg>
