<svg width="35" height="25" viewBox="0 0 35 25" fill="none" xmlns="http://www.w3.org/2000/svg">
<path d="M33.75 8.75C34.0815 8.75 34.3995 8.6183 34.6339 8.38388C34.8683 8.14946 35 7.83152 35 7.5V2.5C35 1.83696 34.7366 1.20107 34.2678 0.732233C33.7989 0.263392 33.163 0 32.5 0H2.5C1.83696 0 1.20107 0.263392 0.732233 0.732233C0.263392 1.20107 0 1.83696 0 2.5V7.5C0 7.83152 0.131696 8.14946 0.366116 8.38388C0.600537 8.6183 0.918479 8.75 1.25 8.75C2.24456 8.75 3.19839 9.14509 3.90165 9.84835C4.60491 10.5516 5 11.5054 5 12.5C5 13.4946 4.60491 14.4484 3.90165 15.1517C3.19839 15.8549 2.24456 16.25 1.25 16.25C0.918479 16.25 0.600537 16.3817 0.366116 16.6161C0.131696 16.8505 0 17.1685 0 17.5V22.5C0 23.163 0.263392 23.7989 0.732233 24.2678C1.20107 24.7366 1.83696 25 2.5 25H32.5C33.163 25 33.7989 24.7366 34.2678 24.2678C34.7366 23.7989 35 23.163 35 22.5V17.5C35 17.1685 34.8683 16.8505 34.6339 16.6161C34.3995 16.3817 34.0815 16.25 33.75 16.25C32.7554 16.25 31.8016 15.8549 31.0983 15.1517C30.3951 14.4484 30 13.4946 30 12.5C30 11.5054 30.3951 10.5516 31.0983 9.84835C31.8016 9.14509 32.7554 8.75 33.75 8.75ZM2.5 18.625C3.91286 18.3381 5.18309 17.5716 6.09547 16.4553C7.00785 15.3391 7.50627 13.9417 7.50627 12.5C7.50627 11.0583 7.00785 9.66094 6.09547 8.54468C5.18309 7.42841 3.91286 6.66189 2.5 6.375V2.5H11.25V22.5H2.5V18.625Z" fill="url(#paint0_linear_3_111)"/>
<defs>
<linearGradient id="paint0_linear_3_111" x1="1.22018" y1="11.75" x2="33.8869" y2="11.75" gradientUnits="userSpaceOnUse">
<stop offset="0.451923" stop-color="#1164FF"/>
<stop offset="1" stop-color="#004CD9"/>
</linearGradient>
</defs>
</svg>
