<svg width="33" height="33" viewBox="0 0 33 33" fill="none" xmlns="http://www.w3.org/2000/svg">
<path d="M16.25 0C13.0361 0 9.89429 0.953046 7.22199 2.73862C4.54969 4.52419 2.46689 7.06209 1.23696 10.0314C0.00704087 13.0007 -0.314763 16.268 0.312247 19.4202C0.939256 22.5724 2.48692 25.4679 4.75952 27.7405C7.03213 30.0131 9.9276 31.5608 13.0798 32.1878C16.232 32.8148 19.4993 32.493 22.4686 31.263C25.4379 30.0331 27.9758 27.9503 29.7614 25.278C31.547 22.6057 32.5 19.4639 32.5 16.25C32.495 11.9418 30.7814 7.81139 27.735 4.765C24.6886 1.7186 20.5583 0.00496247 16.25 0ZM28.4938 10H22.9234C22.222 7.42642 21.0397 5.00887 19.4391 2.875C21.373 3.33958 23.1836 4.21684 24.7467 5.44665C26.3099 6.67646 27.5886 8.22974 28.4953 10H28.4938ZM30 16.25C30.0011 17.5181 29.826 18.7801 29.4797 20H23.4625C23.8458 17.5147 23.8458 14.9853 23.4625 12.5H29.4797C29.826 13.7199 30.0011 14.9819 30 16.25ZM16.25 2.96875C18.1218 4.97269 19.5112 7.37756 20.3125 10H12.1875C12.988 7.3772 14.3775 4.97216 16.25 2.96875ZM12.1875 22.5H20.3125C19.5121 25.1228 18.1225 27.5278 16.25 29.5312C14.3783 27.5273 12.9888 25.1224 12.1875 22.5ZM11.5781 20C11.149 17.5184 11.149 14.9816 11.5781 12.5H20.9344C21.3635 14.9816 21.3635 17.5184 20.9344 20H11.5781ZM19.4453 29.625C21.0459 27.4911 22.2282 25.0736 22.9297 22.5H28.5016C27.5942 24.2709 26.3145 25.8246 24.7502 27.0545C23.186 28.2843 21.3741 29.1612 19.4391 29.625H19.4453Z" fill="url(#paint0_linear_3_21)"/>
<defs>
<linearGradient id="paint0_linear_3_21" x1="1.13303" y1="15.275" x2="31.4664" y2="15.275" gradientUnits="userSpaceOnUse">
<stop offset="0.451923" stop-color="#1164FF"/>
<stop offset="1" stop-color="#004CD9"/>
</linearGradient>
</defs>
</svg>
