<svg width="30" height="18" viewBox="0 0 30 18" fill="none" xmlns="http://www.w3.org/2000/svg">
<path d="M20 9C20 9.98891 19.7068 10.9556 19.1573 11.7779C18.6079 12.6001 17.827 13.241 16.9134 13.6194C15.9998 13.9978 14.9945 14.0969 14.0245 13.9039C13.0546 13.711 12.1637 13.2348 11.4645 12.5355C10.7652 11.8363 10.289 10.9454 10.0961 9.97545C9.90315 9.00555 10.0022 8.00021 10.3806 7.08658C10.759 6.17295 11.3999 5.39206 12.2221 4.84265C13.0444 4.29325 14.0111 4 15 4C16.3261 4 17.5979 4.52678 18.5355 5.46447C19.4732 6.40215 20 7.67392 20 9ZM30 1V17C30 17.2652 29.8946 17.5196 29.7071 17.7071C29.5196 17.8946 29.2652 18 29 18H1C0.734784 18 0.48043 17.8946 0.292893 17.7071C0.105357 17.5196 0 17.2652 0 17V1C0 0.734784 0.105357 0.48043 0.292893 0.292893C0.48043 0.105357 0.734784 0 1 0H29C29.2652 0 29.5196 0.105357 29.7071 0.292893C29.8946 0.48043 30 0.734784 30 1ZM28 6.79375C26.8645 6.45801 25.8311 5.84351 24.9938 5.00623C24.1565 4.16895 23.542 3.1355 23.2062 2H6.79375C6.45801 3.1355 5.84351 4.16895 5.00623 5.00623C4.16895 5.84351 3.1355 6.45801 2 6.79375V11.2062C3.1355 11.542 4.16895 12.1565 5.00623 12.9938C5.84351 13.8311 6.45801 14.8645 6.79375 16H23.2062C23.542 14.8645 24.1565 13.8311 24.9938 12.9938C25.8311 12.1565 26.8645 11.542 28 11.2062V6.79375Z" fill="url(#paint0_linear_3_100)"/>
<defs>
<linearGradient id="paint0_linear_3_100" x1="15" y1="0" x2="15" y2="18" gradientUnits="userSpaceOnUse">
<stop offset="0.45" stop-color="#1164FF"/>
<stop offset="1" stop-color="#004CD9"/>
</linearGradient>
</defs>
</svg>
