<svg width="33" height="33" viewBox="0 0 33 33" fill="none" xmlns="http://www.w3.org/2000/svg">
<path d="M16.25 0C13.0361 0 9.89429 0.953046 7.22199 2.73862C4.54969 4.52419 2.46689 7.06209 1.23696 10.0314C0.00704087 13.0007 -0.314763 16.268 0.312247 19.4202C0.939256 22.5724 2.48692 25.4679 4.75952 27.7405C7.03213 30.0131 9.9276 31.5608 13.0798 32.1878C16.232 32.8148 19.4993 32.493 22.4686 31.263C25.4379 30.0331 27.9758 27.9503 29.7614 25.278C31.547 22.6057 32.5 19.4639 32.5 16.25C32.4955 11.9416 30.7819 7.81102 27.7355 4.76454C24.689 1.71806 20.5584 0.00454972 16.25 0ZM22.3609 3.93594C22.85 9.32969 20.4688 11.7875 17.3438 14.0016C16.9922 10.1766 16.025 6.22031 11.3484 3.40469C13.1216 2.72712 15.0159 2.42451 16.9119 2.51595C18.8079 2.60738 20.6644 3.09089 22.3641 3.93594H22.3609ZM2.52813 17.1156C6.95626 13.9906 10.2734 14.8219 13.7578 16.4297C10.625 18.6469 7.68594 21.4625 7.58126 26.9156C6.10777 25.7197 4.89804 24.2315 4.02834 22.5448C3.15864 20.8581 2.64784 19.0096 2.52813 17.1156ZM23.8563 27.6984C18.9422 25.425 18.0016 22.1391 17.6516 18.3234C19.6391 19.2391 21.7625 20.0031 24.1047 20.0031C25.875 20.0031 27.7703 19.5656 29.8281 18.4281C29.5246 20.3012 28.8374 22.0914 27.8098 23.6866C26.7822 25.2818 25.4363 26.6476 23.8563 27.6984Z" fill="url(#paint0_linear_3_23)"/>
<defs>
<linearGradient id="paint0_linear_3_23" x1="1.13303" y1="15.275" x2="31.4664" y2="15.275" gradientUnits="userSpaceOnUse">
<stop offset="0.451923" stop-color="#1164FF"/>
<stop offset="1" stop-color="#004CD9"/>
</linearGradient>
</defs>
</svg>
