<svg width="20" height="20" viewBox="0 0 20 20" fill="none" xmlns="http://www.w3.org/2000/svg">
<path d="M10.5 14.4375C10.5 14.6229 10.445 14.8042 10.342 14.9583C10.239 15.1125 10.0926 15.2327 9.92127 15.3036C9.74996 15.3746 9.56146 15.3932 9.37961 15.357C9.19775 15.3208 9.0307 15.2315 8.89959 15.1004C8.76848 14.9693 8.67919 14.8023 8.64302 14.6204C8.60684 14.4385 8.62541 14.25 8.69637 14.0787C8.76732 13.9074 8.88749 13.761 9.04166 13.658C9.19583 13.555 9.37708 13.5 9.5625 13.5C9.81114 13.5 10.0496 13.5988 10.2254 13.7746C10.4012 13.9504 10.5 14.1889 10.5 14.4375ZM9.5625 4.5C7.59375 4.5 6 5.92969 6 7.6875V8.0625C6 8.21168 6.05927 8.35476 6.16476 8.46025C6.27025 8.56574 6.41332 8.625 6.5625 8.625C6.71169 8.625 6.85476 8.56574 6.96025 8.46025C7.06574 8.35476 7.125 8.21168 7.125 8.0625V7.6875C7.125 6.55031 8.21813 5.625 9.5625 5.625C10.9069 5.625 12 6.55031 12 7.6875C12 8.82469 10.9069 9.75 9.5625 9.75C9.41332 9.75 9.27025 9.80926 9.16476 9.91475C9.05927 10.0202 9 10.1633 9 10.3125V11.0625C9 11.2117 9.05927 11.3548 9.16476 11.4602C9.27025 11.5657 9.41332 11.625 9.5625 11.625C9.71169 11.625 9.85476 11.5657 9.96025 11.4602C10.0657 11.3548 10.125 11.2117 10.125 11.0625V10.8356C11.8228 10.5938 13.125 9.27375 13.125 7.6875C13.125 5.92969 11.5313 4.5 9.5625 4.5ZM19.125 9.5625C19.125 11.4538 18.5642 13.3026 17.5134 14.8751C16.4627 16.4477 14.9692 17.6733 13.2219 18.3971C11.4746 19.1209 9.5519 19.3102 7.69695 18.9413C5.84201 18.5723 4.13814 17.6615 2.8008 16.3242C1.46346 14.9869 0.552716 13.283 0.183745 11.4281C-0.185226 9.57311 0.00414312 7.65041 0.727906 5.90309C1.45167 4.15577 2.67732 2.66231 4.24986 1.61157C5.82241 0.560831 7.67122 0 9.5625 0C12.0977 0.00297736 14.5283 1.01141 16.3209 2.80408C18.1136 4.59675 19.122 7.02728 19.125 9.5625ZM18 9.5625C18 7.89372 17.5052 6.26242 16.578 4.87488C15.6509 3.48734 14.3331 2.40588 12.7914 1.76727C11.2496 1.12865 9.55314 0.961561 7.91643 1.28712C6.27972 1.61269 4.7763 2.41628 3.59629 3.59629C2.41629 4.77629 1.61269 6.27971 1.28713 7.91643C0.961566 9.55314 1.12866 11.2496 1.76727 12.7914C2.40589 14.3331 3.48734 15.6509 4.87488 16.578C6.26242 17.5051 7.89372 18 9.5625 18C11.7995 17.9975 13.9442 17.1078 15.526 15.526C17.1078 13.9442 17.9975 11.7995 18 9.5625Z" fill="#083255"/>
</svg>
