<svg width="22" height="22" viewBox="0 0 22 22" fill="none" xmlns="http://www.w3.org/2000/svg">
<path d="M13.2894 2.2868C13.2027 2.24434 13.1058 2.22706 13.0098 2.23694C12.9138 2.24681 12.8225 2.28344 12.7463 2.34266L6.69797 7.04688H2.75C2.43091 7.04688 2.12489 7.17363 1.89926 7.39926C1.67363 7.62489 1.54688 7.93091 1.54688 8.25V13.75C1.54688 14.0691 1.67363 14.3751 1.89926 14.6007C2.12489 14.8264 2.43091 14.9531 2.75 14.9531H6.69797L12.7463 19.6573C12.8225 19.7165 12.9138 19.7531 13.0098 19.763C13.1058 19.7729 13.2026 19.7556 13.2893 19.7132C13.3759 19.6707 13.4489 19.6048 13.5 19.523C13.5511 19.4411 13.5781 19.3465 13.5781 19.25V2.75C13.5782 2.65351 13.5511 2.55894 13.5001 2.47706C13.449 2.39517 13.376 2.32925 13.2894 2.2868ZM2.57812 13.75V8.25C2.57812 8.20442 2.59623 8.1607 2.62847 8.12847C2.6607 8.09623 2.70442 8.07813 2.75 8.07813H6.35938V13.9219H2.75C2.70442 13.9219 2.6607 13.9038 2.62847 13.8715C2.59623 13.8393 2.57812 13.7956 2.57812 13.75ZM12.5469 18.1955L7.39062 14.1857V7.8143L12.5469 3.80445V18.1955ZM16.8893 8.84125C17.4147 9.43764 17.7046 10.2052 17.7046 11C17.7046 11.7948 17.4147 12.5624 16.8893 13.1588C16.8445 13.2095 16.7901 13.251 16.7293 13.2808C16.6685 13.3105 16.6024 13.328 16.5348 13.3323C16.4672 13.3365 16.3994 13.3274 16.3354 13.3054C16.2713 13.2835 16.2122 13.2491 16.1614 13.2043C16.1106 13.1595 16.0692 13.1051 16.0394 13.0443C16.0096 12.9835 15.9921 12.9174 15.9879 12.8498C15.9837 12.7822 15.9928 12.7144 16.0147 12.6504C16.0367 12.5863 16.0711 12.5272 16.1159 12.4764C16.4752 12.0684 16.6735 11.5433 16.6735 10.9996C16.6735 10.4558 16.4752 9.93076 16.1159 9.52273C16.03 9.41955 15.9878 9.28696 15.9981 9.15313C16.0085 9.01931 16.0706 8.89479 16.1713 8.80606C16.272 8.71732 16.4034 8.67135 16.5375 8.67792C16.6715 8.6845 16.7977 8.74309 16.8893 8.84125ZM21.1406 11C21.1418 12.649 20.534 14.2404 19.4339 15.4688C19.3893 15.521 19.3347 15.5638 19.2733 15.5946C19.2118 15.6255 19.1449 15.6437 19.0763 15.6483C19.0078 15.6529 18.939 15.6438 18.874 15.6214C18.8091 15.599 18.7492 15.5639 18.698 15.5181C18.6468 15.4723 18.6053 15.4167 18.5759 15.3546C18.5464 15.2925 18.5297 15.2251 18.5267 15.1565C18.5237 15.0878 18.5344 15.0193 18.5583 14.9548C18.5821 14.8904 18.6186 14.8314 18.6656 14.7813C19.5957 13.7414 20.1099 12.3952 20.1099 11C20.1099 9.60485 19.5957 8.25864 18.6656 7.21875C18.6186 7.16862 18.5821 7.10959 18.5583 7.04516C18.5344 6.98072 18.5237 6.91216 18.5267 6.84351C18.5297 6.77487 18.5464 6.70752 18.5759 6.64542C18.6053 6.58332 18.6468 6.52773 18.698 6.48191C18.7492 6.43609 18.8091 6.40096 18.874 6.3786C18.939 6.35624 19.0078 6.34708 19.0763 6.35168C19.1449 6.35628 19.2118 6.37453 19.2733 6.40537C19.3347 6.43621 19.3893 6.479 19.4339 6.53125C20.534 7.75964 21.1418 9.351 21.1406 11Z" fill="white"/>
</svg>
